<svg width="160" height="60" viewBox="0 0 160 60" fill="none" xmlns="http://www.w3.org/2000/svg">
<path d="M0 0H15.7225V39.1837H7.70713V7.95918H0V0Z" fill="#002944"/>
<path d="M24.0462 0H63.5067V39.1837H24.0462V31.5306H55.4913V23.5714H24.0462V15.9184H55.4913V7.95918H24.0462V0Z" fill="#002944"/>
<path fill-rule="evenodd" clip-rule="evenodd" d="M71.5222 39.1837H110.674V15.9184H79.5376V7.95918H110.674V0H71.5222V39.1837ZM102.967 23.5714H79.2293V31.5306H102.967V23.5714Z" fill="#002944"/>
<path d="M105.54 59.1458L105.86 59.8257H108.55V53.2015H101.296V54.9796H105.046V57.5944C104.175 57.9663 103.196 58.1522 102.11 58.1522C100.762 58.1522 99.7337 57.7803 99.0265 57.0366C98.3193 56.2812 97.9657 55.1772 97.9657 53.7245C97.9657 52.3416 98.3439 51.284 99.1005 50.5519C99.8736 49.8197 100.984 49.4537 102.431 49.4537C103.286 49.4537 104.043 49.5757 104.701 49.8197C105.375 50.0522 105.918 50.395 106.329 50.8482L108.352 49.5931C107.875 48.9191 107.11 48.3961 106.058 48.0242C105.022 47.6407 103.804 47.449 102.406 47.449C100.795 47.449 99.3884 47.7047 98.1877 48.216C96.987 48.7273 96.0578 49.4595 95.3999 50.4124C94.742 51.3537 94.413 52.4578 94.413 53.7245C94.413 55.7001 95.0462 57.2399 96.3127 58.344C97.5791 59.448 99.3555 60 101.642 60C103.122 60 104.421 59.7153 105.54 59.1458Z" fill="#002944"/>
<path fill-rule="evenodd" clip-rule="evenodd" d="M84.7705 53.4979C84.7705 49.5815 82.4103 47.6233 77.6899 47.6233H71.5222V59.8257H77.0238C78.8823 59.8257 80.3708 59.6107 81.4893 59.1807C82.6241 58.7507 83.4547 58.0767 83.981 57.1586C84.5073 56.2289 84.7705 55.0087 84.7705 53.4979ZM79.6389 57.3852C79.0797 57.6757 78.3314 57.821 77.3939 57.821H75.0748V49.628H77.6159C78.9152 49.628 79.8445 49.9301 80.4037 50.5344C80.9629 51.1271 81.2425 52.1149 81.2425 53.4979C81.2425 54.5438 81.111 55.3805 80.8478 56.0081C80.6011 56.6356 80.1981 57.0947 79.6389 57.3852Z" fill="#002944"/>
<path fill-rule="evenodd" clip-rule="evenodd" d="M135.758 57.8036L134.894 59.8257H131.193L137.164 47.6233H140.297L146.267 59.8257H142.567L141.703 57.8036H135.758ZM140.84 55.7989L138.743 50.9179L136.621 55.7989H140.84Z" fill="#002944"/>
<path d="M91.4218 47.6233H87.8939V59.8257H91.4218V47.6233Z" fill="#002944"/>
<path d="M111.987 47.6233H115.515V59.8257H111.987V47.6233Z" fill="#002944"/>
<path d="M118.111 49.4711H123.243V59.8257H126.795V49.4711H131.927V47.6233H118.111V49.4711Z" fill="#002944"/>
<path d="M148.306 47.6233H151.859V57.821H160V59.8257H148.306V47.6233Z" fill="#002944"/>
</svg>
